<svg width="16px" height="16px" viewBox="0 0 16 16">
  <g id="Designs" stroke="none" stroke-width="1" fill="none" fill-rule="evenodd">
    <g id="00_04_Icons" transform="translate(-283.000000, -188.000000)" fill="black">
      <g id="ic_settings" transform="translate(281.000000, 186.000000)">
        <g id="Icon-24px">
          <path
            d="M15.4120118,10.582146 C15.4432764,10.3320288 15.4667249,10.0819116 15.4667249,9.81616211 C15.4667249,9.5504126 15.4432764,9.30029541 15.4120118,9.05017822 L17.061222,7.76051147 C17.209729,7.64326904 17.2488098,7.43223267 17.1550159,7.2602771 L15.5917835,4.55588501 C15.4979895,4.38392944 15.2869532,4.32140015 15.1149976,4.38392944 L13.1687732,5.16554565 C12.7623328,4.85289917 12.3246277,4.59496582 11.8478418,4.39956177 L11.5508277,2.32827881 C11.5273792,2.14069092 11.3632398,2 11.1678357,2 L8.04137088,2 C7.84596683,2 7.68182742,2.14069092 7.65837894,2.32827881 L7.36136478,4.39956177 C6.88457889,4.59496582 6.44687381,4.86071533 6.04043338,5.16554565 L4.09420902,4.38392944 C3.91443729,4.31358398 3.71121707,4.38392944 3.61742313,4.55588501 L2.05419071,7.2602771 C1.9525806,7.43223267 1.99947757,7.64326904 2.14798465,7.76051147 L3.79719486,9.05017822 C3.76593021,9.30029541 3.74248172,9.55822876 3.74248172,9.81616211 C3.74248172,10.0740955 3.76593021,10.3320288 3.79719486,10.582146 L2.14798465,11.8718127 C1.99947757,11.9890552 1.96039676,12.2000916 2.05419071,12.3720471 L3.61742313,15.0764392 C3.71121707,15.2483948 3.92225345,15.3109241 4.09420902,15.2483948 L6.04043338,14.4667786 C6.44687381,14.779425 6.88457889,15.0373584 7.36136478,15.2327625 L7.65837894,17.3040454 C7.68182742,17.4916333 7.84596683,17.6323242 8.04137088,17.6323242 L11.1678357,17.6323242 C11.3632398,17.6323242 11.5273792,17.4916333 11.5508277,17.3040454 L11.8478418,15.2327625 C12.3246277,15.0373584 12.7623328,14.7716089 13.1687732,14.4667786 L15.1149976,15.2483948 C15.2947693,15.3187402 15.4979895,15.2483948 15.5917835,15.0764392 L17.1550159,12.3720471 C17.2488098,12.2000916 17.209729,11.9890552 17.061222,11.8718127 L15.4120118,10.582146 L15.4120118,10.582146 Z M9.6046033,12.5518188 C8.09608402,12.5518188 6.86894656,11.3246814 6.86894656,9.81616211 C6.86894656,8.30764282 8.09608402,7.08050537 9.6046033,7.08050537 C11.1131226,7.08050537 12.34026,8.30764282 12.34026,9.81616211 C12.34026,11.3246814 11.1131226,12.5518188 9.6046033,12.5518188 L9.6046033,12.5518188 Z"
            id="Shape"></path>
        </g>
      </g>
    </g>
  </g>
</svg>
